<svg xmlns="http://www.w3.org/2000/svg" xmlns:xlink="http://www.w3.org/1999/xlink" width="360" height="2032" viewBox="0 0 360 2032">
    <defs>
        <path id="lmk0f51cfa" d="M0 0H360V1016H0z"/>
        <path id="h7vqvkfcec" d="M0 0H360V1016H0z"/>
    </defs>
    <g fill="none" fill-rule="evenodd">
        <g>
            <g transform="translate(-2508 -3488) translate(2508 3488)">
                <mask id="02c3u7oibb" fill="#fff">
                    <use xlink:href="#lmk0f51cfa"/>
                </mask>
                <use fill="#04163B" xlink:href="#lmk0f51cfa"/>
                <g mask="url(#02c3u7oibb)" opacity=".07">
                    <g stroke="#FFF">
                        <g>
                            <path stroke-width="16" d="M257.352 476.82L383.517 1.02" transform="rotate(90 217 210.5)"/>
                            <path stroke-width="10" d="M17.712 0.274L358.152 96.68" transform="rotate(90 217 210.5)"/>
                            <path stroke-width="16" d="M126.707.274L.541 465.633M17.712 423.124L252.873 476.074" transform="rotate(90 217 210.5)"/>
                        </g>
                        <path stroke-width="10" d="M275 404.662L151.319 374 132 450M29.5 359.5L148.5 392.5M58.5 250.5L300.5 314.5M4.5 128.5L83.5 155.5" transform="rotate(90 217 210.5)"/>
                        <path stroke-width="16" d="M186.5 282.5L197.5 237.5" transform="rotate(90 217 210.5)"/>
                        <g>
                            <path stroke-width="16" d="M66.248 209.093c0 18.122-14.718 32.813-32.874 32.813C15.218 241.906.5 227.215.5 209.093c0-18.123 14.718-32.814 32.874-32.814 18.156 0 32.874 14.691 32.874 32.814z" transform="rotate(90 217 210.5) translate(170)"/>
                            <path stroke-width="10" d="M113.297 376.292L486.887 476.077M130.796 310.353L544.809 424.291" transform="rotate(90 217 210.5) translate(170)"/>
                            <path stroke-width="16" d="M527.979 480.552L671.429 1.023" transform="rotate(90 217 210.5) translate(170)"/>
                            <path stroke-width="10" d="M187.301 97.429L606.429 206.855M275.057 120.341L560.853.278M411.84 62.878L635.925 119.707M338.221 26.252L347.003 90.116M307.537 128.821L276.193 237.431M462.935 289.058L218.664 227.737 189.128 326.406M492.087 177.003L435.686 394.26M470.583 259.839L584.409 291.913M299.675 248.073L254.381 413.976M288.849 287.725L564.69 357.831M539.875 440.786L684.13 436.551 802.178 1.769M564.69 357.831L775.281 417.161M906.777 379.127L775.282 417.162M863.444 388.077L887.352 478.314M775.281 417.161L787.635 464.705M589.991 291.873L856.719 359.737M852.5 67.5L852.5 427.5M610.164 209.838L906.03 291.873M883.488 285.622L856.719 359.737M632.464 131.276L911.26 206.109M653.697 60.299L915.743 128.55M674.418 1.769L941.893 71.871" transform="rotate(90 217 210.5) translate(170)"/>
                        </g>
                    </g>
                </g>
                <g transform="matrix(1 0 0 -1 0 2032)">
                    <mask id="3mnugyajpd" fill="#fff">
                        <use xlink:href="#h7vqvkfcec"/>
                    </mask>
                    <use fill="#04163B" xlink:href="#h7vqvkfcec"/>
                    <g mask="url(#3mnugyajpd)" opacity=".07">
                        <g stroke="#FFF">
                            <g>
                                <path stroke-width="16" d="M257.352 476.82L383.517 1.02" transform="rotate(90 217 210.5)"/>
                                <path stroke-width="10" d="M17.712 0.274L358.152 96.68" transform="rotate(90 217 210.5)"/>
                                <path stroke-width="16" d="M126.707.274L.541 465.633M17.712 423.124L252.873 476.074" transform="rotate(90 217 210.5)"/>
                            </g>
                            <path stroke-width="10" d="M275 404.662L151.319 374 132 450M29.5 359.5L148.5 392.5M58.5 250.5L300.5 314.5M4.5 128.5L83.5 155.5" transform="rotate(90 217 210.5)"/>
                            <path stroke-width="16" d="M186.5 282.5L197.5 237.5" transform="rotate(90 217 210.5)"/>
                            <g>
                                <path stroke-width="16" d="M66.248 209.093c0 18.122-14.718 32.813-32.874 32.813C15.218 241.906.5 227.215.5 209.093c0-18.123 14.718-32.814 32.874-32.814 18.156 0 32.874 14.691 32.874 32.814z" transform="rotate(90 217 210.5) translate(170)"/>
                                <path stroke-width="10" d="M113.297 376.292L486.887 476.077M130.796 310.353L544.809 424.291" transform="rotate(90 217 210.5) translate(170)"/>
                                <path stroke-width="16" d="M527.979 480.552L671.429 1.023" transform="rotate(90 217 210.5) translate(170)"/>
                                <path stroke-width="10" d="M187.301 97.429L606.429 206.855M275.057 120.341L560.853.278M411.84 62.878L635.925 119.707M338.221 26.252L347.003 90.116M307.537 128.821L276.193 237.431M462.935 289.058L218.664 227.737 189.128 326.406M492.087 177.003L435.686 394.26M470.583 259.839L584.409 291.913M299.675 248.073L254.381 413.976M288.849 287.725L564.69 357.831M539.875 440.786L684.13 436.551 802.178 1.769M564.69 357.831L775.281 417.161M906.777 379.127L775.282 417.162M863.444 388.077L887.352 478.314M775.281 417.161L787.635 464.705M589.991 291.873L856.719 359.737M852.5 67.5L852.5 427.5M610.164 209.838L906.03 291.873M883.488 285.622L856.719 359.737M632.464 131.276L911.26 206.109M653.697 60.299L915.743 128.55M674.418 1.769L941.893 71.871" transform="rotate(90 217 210.5) translate(170)"/>
                            </g>
                        </g>
                    </g>
                </g>
            </g>
        </g>
    </g>
</svg>
