<svg xmlns="http://www.w3.org/2000/svg" width="11" height="11" viewBox="0 0 11 11">
    <g fill="none" fill-rule="evenodd">
        <g fill="#4AFCFF">
            <g>
                <g>
                    <g>
                        <g>
                            <path d="M8.344 3.312c-.915 0-1.656-.741-1.656-1.656C6.688.742 5.947 0 5.032 0h-.064c-.915 0-1.656.742-1.656 1.656 0 .915-.741 1.656-1.656 1.656C.741 3.312 0 4.053 0 4.968v.064c0 .915.741 1.656 1.656 1.656.915 0 1.656.742 1.656 1.656 0 .915.741 1.656 1.656 1.656h.064c.915 0 1.656-.741 1.656-1.656 0-.914.741-1.656 1.656-1.656.914 0 1.656-.741 1.656-1.656v-.064c0-.915-.742-1.656-1.656-1.656" transform="translate(-118 -96) translate(0 61) translate(118.067 14.634) translate(.667 21)"/>
                        </g>
                    </g>
                </g>
            </g>
        </g>
    </g>
</svg>
