<svg xmlns="http://www.w3.org/2000/svg" xmlns:xlink="http://www.w3.org/1999/xlink" width="2048" height="2577" viewBox="0 0 2048 2577">
    <defs>
        <path id="7bra4ghwsa" d="M0 859L2048 859 2048 0 0 0z"/>
        <path id="x7vqypdpxc" d="M0 859L2048 859 2048 0 0 0z"/>
        <path id="26ur5qsl6e" d="M0 859L2048 859 2048 0 0 0z"/>
        <path id="0q197mu0vg" d="M0 859L2048 859 2048 0 0 0z"/>
        <linearGradient id="lk3zhm11od" x1="50%" x2="50%" y1="35.028%" y2="1.183%">
            <stop offset="0%" stop-color="#04163B" stop-opacity="0"/>
            <stop offset="100%" stop-color="#04163B"/>
        </linearGradient>
    </defs>
    <g fill="none" fill-rule="evenodd">
        <g>
            <g transform="translate(-167 -3488) translate(167 3488)">
                <mask id="bt9jv055lb" fill="#fff">
                    <use xlink:href="#7bra4ghwsa"/>
                </mask>
                <use fill="#04163B" xlink:href="#7bra4ghwsa"/>
                <g mask="url(#bt9jv055lb)" opacity=".07">
                    <g stroke="#FFF">
                        <g>
                            <path stroke-width="16" d="M490.235 888.213L731.079 1.9" transform="translate(0 -6)"/>
                            <path stroke-width="10" d="M711.781 72.918L466.009 1.9M32.774.511L682.657 180.095" transform="translate(0 -6)"/>
                            <path stroke-width="16" d="M240.84.511L-.004 867.374M32.774 788.189L481.685 886.823M305.872 848.194L289.294 895.158" transform="translate(0 -6)"/>
                        </g>
                        <path stroke-width="10" d="M524 754.289L287.881 697 251 839M55 670L282 731M111 467L573 586M8 239L158 290" transform="translate(0 -6)"/>
                        <path stroke-width="16" d="M355 526L376 442" transform="translate(0 -6)"/>
                        <g>
                            <path stroke-width="16" d="M126.448 389.495c0 33.758-28.092 61.125-62.746 61.125-34.655 0-62.748-27.367-62.748-61.125 0-33.758 28.093-61.125 62.748-61.125 34.654 0 62.746 27.367 62.746 61.125z" transform="translate(0 -6) translate(323)"/>
                            <path stroke-width="10" d="M216.25 700.951L929.323 886.829M249.651 578.121L1039.88 790.364" transform="translate(0 -6) translate(323)"/>
                            <path stroke-width="16" d="M1007.755 895.165L1281.56 1.906" transform="translate(0 -6) translate(323)"/>
                            <path stroke-width="10" d="M357.502 181.49L1157.494 385.327M525.003 224.169L1070.503.518M994.057 31.86L1250.452 103.396M786.08 117.129L1213.792 222.989M403.104 47.75L948.98 50.34M645.564 48.901L662.326 167.867M586.997 239.965L527.171 442.284M883.607 538.453L417.365 424.225 360.989 608.024M939.249 329.719L831.595 734.422M898.204 484.025L1115.465 543.772M571.992 462.108L485.539 771.148M551.328 535.97L1077.827 666.563M1030.461 821.09L1305.803 813.202 1531.122 3.296M1228.652 815.412L1234.5 888.218M1077.827 666.562L1479.783 777.082M1730.771 706.233L1479.784 777.083M1432.722 879.884L1680.858 829.873M1648.059 722.904L1693.693 890.997M1479.783 777.082L1503.362 865.647M1126.118 543.697L1635.223 670.114M1164.623 390.884L1729.344 543.696M1686.317 532.053L1635.224 670.114M1207.187 244.539L1739.326 383.937M1247.715 112.324L1747.883 239.461M1287.264 3.296L1797.796 133.88" transform="translate(0 -6) translate(323)"/>
                        </g>
                    </g>
                </g>
                <use fill="url(#lk3zhm11od)" xlink:href="#x7vqypdpxc"/>
                <g transform="matrix(1 0 0 -1 0 1718)">
                    <mask id="sw02o75kaf" fill="#fff">
                        <use xlink:href="#26ur5qsl6e"/>
                    </mask>
                    <use fill="#04163B" xlink:href="#26ur5qsl6e"/>
                    <g mask="url(#sw02o75kaf)" opacity=".07">
                        <g stroke="#FFF">
                            <g>
                                <path stroke-width="16" d="M490.235 888.213L731.079 1.9" transform="translate(0 -6)"/>
                                <path stroke-width="10" d="M711.781 72.918L466.009 1.9M32.774.511L682.657 180.095" transform="translate(0 -6)"/>
                                <path stroke-width="16" d="M240.84.511L-.004 867.374M32.774 788.189L481.685 886.823M305.872 848.194L289.294 895.158" transform="translate(0 -6)"/>
                            </g>
                            <path stroke-width="10" d="M524 754.289L287.881 697 251 839M55 670L282 731M111 467L573 586M8 239L158 290" transform="translate(0 -6)"/>
                            <path stroke-width="16" d="M355 526L376 442" transform="translate(0 -6)"/>
                            <g>
                                <path stroke-width="16" d="M126.448 389.495c0 33.758-28.092 61.125-62.746 61.125-34.655 0-62.748-27.367-62.748-61.125 0-33.758 28.093-61.125 62.748-61.125 34.654 0 62.746 27.367 62.746 61.125z" transform="translate(0 -6) translate(323)"/>
                                <path stroke-width="10" d="M216.25 700.951L929.323 886.829M249.651 578.121L1039.88 790.364" transform="translate(0 -6) translate(323)"/>
                                <path stroke-width="16" d="M1007.755 895.165L1281.56 1.906" transform="translate(0 -6) translate(323)"/>
                                <path stroke-width="10" d="M357.502 181.49L1157.494 385.327M525.003 224.169L1070.503.518M994.057 31.86L1250.452 103.396M786.08 117.129L1213.792 222.989M403.104 47.75L948.98 50.34M645.564 48.901L662.326 167.867M586.997 239.965L527.171 442.284M883.607 538.453L417.365 424.225 360.989 608.024M939.249 329.719L831.595 734.422M898.204 484.025L1115.465 543.772M571.992 462.108L485.539 771.148M551.328 535.97L1077.827 666.563M1030.461 821.09L1305.803 813.202 1531.122 3.296M1228.652 815.412L1234.5 888.218M1077.827 666.562L1479.783 777.082M1730.771 706.233L1479.784 777.083M1432.722 879.884L1680.858 829.873M1648.059 722.904L1693.693 890.997M1479.783 777.082L1503.362 865.647M1126.118 543.697L1635.223 670.114M1164.623 390.884L1729.344 543.696M1686.317 532.053L1635.224 670.114M1207.187 244.539L1739.326 383.937M1247.715 112.324L1747.883 239.461M1287.264 3.296L1797.796 133.88" transform="translate(0 -6) translate(323)"/>
                            </g>
                        </g>
                    </g>
                </g>
                <g transform="translate(0 1718)">
                    <mask id="d7xee7c5ph" fill="#fff">
                        <use xlink:href="#0q197mu0vg"/>
                    </mask>
                    <use fill="#04163B" xlink:href="#0q197mu0vg"/>
                    <g mask="url(#d7xee7c5ph)" opacity=".07">
                        <g stroke="#FFF">
                            <g>
                                <path stroke-width="16" d="M490.235 888.213L731.079 1.9" transform="translate(0 -6)"/>
                                <path stroke-width="10" d="M711.781 72.918L466.009 1.9M32.774.511L682.657 180.095" transform="translate(0 -6)"/>
                                <path stroke-width="16" d="M240.84.511L-.004 867.374M32.774 788.189L481.685 886.823M305.872 848.194L289.294 895.158" transform="translate(0 -6)"/>
                            </g>
                            <path stroke-width="10" d="M524 754.289L287.881 697 251 839M55 670L282 731M111 467L573 586M8 239L158 290" transform="translate(0 -6)"/>
                            <path stroke-width="16" d="M355 526L376 442" transform="translate(0 -6)"/>
                            <g>
                                <path stroke-width="16" d="M126.448 389.495c0 33.758-28.092 61.125-62.746 61.125-34.655 0-62.748-27.367-62.748-61.125 0-33.758 28.093-61.125 62.748-61.125 34.654 0 62.746 27.367 62.746 61.125z" transform="translate(0 -6) translate(323)"/>
                                <path stroke-width="10" d="M216.25 700.951L929.323 886.829M249.651 578.121L1039.88 790.364" transform="translate(0 -6) translate(323)"/>
                                <path stroke-width="16" d="M1007.755 895.165L1281.56 1.906" transform="translate(0 -6) translate(323)"/>
                                <path stroke-width="10" d="M357.502 181.49L1157.494 385.327M525.003 224.169L1070.503.518M994.057 31.86L1250.452 103.396M786.08 117.129L1213.792 222.989M403.104 47.75L948.98 50.34M645.564 48.901L662.326 167.867M586.997 239.965L527.171 442.284M883.607 538.453L417.365 424.225 360.989 608.024M939.249 329.719L831.595 734.422M898.204 484.025L1115.465 543.772M571.992 462.108L485.539 771.148M551.328 535.97L1077.827 666.563M1030.461 821.09L1305.803 813.202 1531.122 3.296M1228.652 815.412L1234.5 888.218M1077.827 666.562L1479.783 777.082M1730.771 706.233L1479.784 777.083M1432.722 879.884L1680.858 829.873M1648.059 722.904L1693.693 890.997M1479.783 777.082L1503.362 865.647M1126.118 543.697L1635.223 670.114M1164.623 390.884L1729.344 543.696M1686.317 532.053L1635.224 670.114M1207.187 244.539L1739.326 383.937M1247.715 112.324L1747.883 239.461M1287.264 3.296L1797.796 133.88" transform="translate(0 -6) translate(323)"/>
                            </g>
                        </g>
                    </g>
                </g>
            </g>
        </g>
    </g>
</svg>
